# xmcd CD database file
# Copyright (C) 1997 Ti Kan
#
# Track frame offsets:
#  183
#  17383
#  47733
#  80465
#
# Disc length: 1500 seconds
#
# Revision: 1
# Processed by: cddbd v1.4b41PL1 Copyright (c) Steve Scherf et al.
# Submitted via: CDWizzard Release:4.32
#
DISCID=2105da04
DTITLE=Dina Carroll - The Perfect Year
DYEAR=1900
DGENRE=
TTITLE0=The Perfect Year
TTITLE1=Here
TTITLE2=Here (mix)
TTITLE3=Ain't no Man
EXTD=
EXTT0=
EXTT1=
EXTT2=
EXTT3=
PLAYORDER=
